<svg xmlns="http://www.w3.org/2000/svg" xmlns:xlink="http://www.w3.org/1999/xlink" width="2000" zoomAndPan="magnify" viewBox="0 0 1500 1499.999933" height="2000" preserveAspectRatio="xMidYMid meet" version="1.0"><defs><g/><clipPath id="3bf4a54488"><path d="M 450 637.875 L 1050 637.875 L 1050 862.125 L 450 862.125 Z M 450 637.875 " clip-rule="nonzero"/></clipPath><clipPath id="571c66a58f"><rect x="0" width="877" y="0" height="140"/></clipPath></defs><g clip-path="url(#3bf4a54488)"><path fill="#242424" d="M 450.214844 815.921875 C 450.191406 815.988281 450.171875 816.054688 450.152344 816.125 C 450.066406 816.421875 450.007812 816.726562 450.003906 817.050781 C 450.003906 817.066406 450 817.078125 450 817.089844 C 450 817.09375 450 817.09375 450 817.097656 L 450 829.539062 C 450 831.476562 451.574219 833.050781 453.511719 833.050781 L 594.839844 833.050781 L 594.839844 862.023438 L 616.5 862.023438 L 616.5 833.050781 L 804.839844 833.050781 C 805.167969 833.050781 805.488281 832.988281 805.800781 832.898438 C 805.867188 832.878906 805.933594 832.863281 806 832.839844 C 806.304688 832.730469 806.59375 832.589844 806.859375 832.402344 C 806.871094 832.394531 806.890625 832.390625 806.90625 832.378906 L 836.90625 810.585938 L 928.984375 810.585938 L 928.984375 862.023438 L 950.640625 862.023438 L 950.640625 727.96875 L 1048.617188 656.800781 C 1049.527344 656.140625 1050.066406 655.082031 1050.066406 653.957031 L 1050.066406 641.46875 C 1050.066406 641.464844 1050.066406 641.464844 1050.066406 641.460938 L 1050.066406 641.453125 C 1050.066406 641.097656 1050.003906 640.753906 1049.902344 640.425781 C 1049.898438 640.40625 1049.902344 640.386719 1049.894531 640.367188 C 1049.867188 640.28125 1049.808594 640.214844 1049.773438 640.132812 C 1049.683594 639.910156 1049.582031 639.695312 1049.449219 639.492188 C 1049.371094 639.382812 1049.28125 639.285156 1049.195312 639.183594 C 1049.058594 639.023438 1048.917969 638.878906 1048.753906 638.746094 C 1048.640625 638.652344 1048.527344 638.578125 1048.40625 638.5 C 1048.316406 638.445312 1048.242188 638.371094 1048.148438 638.320312 C 1048.054688 638.273438 1047.957031 638.261719 1047.859375 638.222656 C 1047.730469 638.167969 1047.601562 638.121094 1047.460938 638.085938 C 1047.246094 638.027344 1047.03125 637.996094 1046.8125 637.980469 C 1046.722656 637.972656 1046.644531 637.9375 1046.554688 637.9375 L 695.265625 637.9375 C 694.523438 637.9375 693.800781 638.175781 693.199219 638.609375 L 451.449219 814.253906 C 451.417969 814.273438 451.402344 814.304688 451.375 814.324219 C 451.132812 814.511719 450.917969 814.726562 450.734375 814.96875 C 450.703125 815.007812 450.671875 815.039062 450.644531 815.078125 C 450.460938 815.335938 450.324219 815.621094 450.214844 815.921875 Z M 492.574219 793.058594 L 534.988281 793.058594 L 506.738281 813.582031 L 464.324219 813.582031 Z M 527.109375 767.964844 L 569.523438 767.964844 L 537.890625 790.949219 L 495.476562 790.949219 Z M 561.644531 742.875 L 604.0625 742.875 L 572.425781 765.859375 L 530.011719 765.859375 Z M 596.183594 717.78125 L 638.597656 717.78125 L 606.960938 740.765625 L 564.546875 740.765625 Z M 630.71875 692.691406 L 673.132812 692.691406 L 641.5 715.671875 L 599.085938 715.671875 Z M 665.253906 667.597656 L 707.667969 667.597656 L 676.035156 690.582031 L 633.621094 690.582031 Z M 789.007812 644.964844 L 760.757812 665.488281 L 714.15625 665.488281 L 742.40625 644.964844 Z M 839.191406 644.964844 L 810.941406 665.488281 L 764.34375 665.488281 L 792.59375 644.964844 Z M 889.375 644.964844 L 861.125 665.488281 L 814.527344 665.488281 L 842.777344 644.964844 Z M 939.558594 644.964844 L 911.308594 665.488281 L 864.710938 665.488281 L 892.960938 644.964844 Z M 989.742188 644.964844 L 961.492188 665.488281 L 914.894531 665.488281 L 943.144531 644.964844 Z M 1035.742188 644.964844 L 1007.492188 665.488281 L 965.078125 665.488281 L 993.328125 644.964844 Z M 761.246094 813.582031 L 789.496094 793.058594 L 831.910156 793.058594 L 803.660156 813.582031 Z M 711.058594 813.582031 L 739.308594 793.058594 L 785.910156 793.058594 L 757.660156 813.582031 Z M 660.875 813.582031 L 689.125 793.058594 L 735.726562 793.058594 L 707.472656 813.582031 Z M 610.691406 813.582031 L 638.941406 793.058594 L 685.539062 793.058594 L 657.289062 813.582031 Z M 773.847656 767.964844 L 820.445312 767.964844 L 788.8125 790.949219 L 742.210938 790.949219 Z M 738.625 790.949219 L 692.027344 790.949219 L 723.660156 767.964844 L 770.261719 767.964844 Z M 776.746094 765.859375 L 808.382812 742.875 L 854.980469 742.875 L 823.347656 765.859375 Z M 824.03125 767.964844 L 866.445312 767.964844 L 834.808594 790.949219 L 792.394531 790.949219 Z M 869.347656 765.859375 L 826.933594 765.859375 L 858.566406 742.875 L 900.980469 742.875 Z M 861.46875 740.765625 L 893.105469 717.78125 L 935.519531 717.78125 L 903.882812 740.765625 Z M 857.882812 740.765625 L 811.285156 740.765625 L 842.917969 717.78125 L 889.519531 717.78125 Z M 807.699219 740.765625 L 761.097656 740.765625 L 792.734375 717.78125 L 839.335938 717.78125 Z M 804.796875 742.875 L 773.164062 765.859375 L 726.5625 765.859375 L 758.199219 742.875 Z M 722.980469 765.859375 L 676.378906 765.859375 L 708.015625 742.875 L 754.613281 742.875 Z M 720.078125 767.964844 L 688.441406 790.949219 L 641.84375 790.949219 L 673.476562 767.964844 Z M 938.417969 715.671875 L 896.003906 715.671875 L 927.640625 692.691406 L 970.054688 692.691406 Z M 892.421875 715.671875 L 845.820312 715.671875 L 877.457031 692.691406 L 924.054688 692.691406 Z M 842.234375 715.671875 L 795.636719 715.671875 L 827.269531 692.691406 L 873.871094 692.691406 Z M 792.050781 715.671875 L 745.453125 715.671875 L 777.085938 692.691406 L 823.6875 692.691406 Z M 789.148438 717.78125 L 757.515625 740.765625 L 710.914062 740.765625 L 742.550781 717.78125 Z M 707.332031 740.765625 L 660.730469 740.765625 L 692.367188 717.78125 L 738.964844 717.78125 Z M 704.429688 742.875 L 672.792969 765.859375 L 626.195312 765.859375 L 657.832031 742.875 Z M 669.894531 767.964844 L 638.257812 790.949219 L 591.660156 790.949219 L 623.292969 767.964844 Z M 635.355469 793.058594 L 607.105469 813.582031 L 560.507812 813.582031 L 588.757812 793.058594 Z M 972.957031 690.582031 L 930.542969 690.582031 L 962.175781 667.597656 L 1004.589844 667.597656 Z M 926.957031 690.582031 L 880.355469 690.582031 L 911.992188 667.597656 L 958.589844 667.597656 Z M 876.773438 690.582031 L 830.171875 690.582031 L 861.808594 667.597656 L 908.40625 667.597656 Z M 826.589844 690.582031 L 779.988281 690.582031 L 811.625 667.597656 L 858.222656 667.597656 Z M 776.402344 690.582031 L 729.804688 690.582031 L 761.441406 667.597656 L 808.039062 667.597656 Z M 773.503906 692.691406 L 741.867188 715.671875 L 695.269531 715.671875 L 726.902344 692.691406 Z M 691.683594 715.671875 L 645.085938 715.671875 L 676.71875 692.691406 L 723.320312 692.691406 Z M 688.78125 717.78125 L 657.148438 740.765625 L 610.546875 740.765625 L 642.183594 717.78125 Z M 654.246094 742.875 L 622.609375 765.859375 L 576.011719 765.859375 L 607.644531 742.875 Z M 619.710938 767.964844 L 588.074219 790.949219 L 541.476562 790.949219 L 573.109375 767.964844 Z M 585.171875 793.058594 L 556.921875 813.582031 L 510.324219 813.582031 L 538.574219 793.058594 Z M 757.855469 667.597656 L 726.21875 690.582031 L 679.621094 690.582031 L 711.253906 667.597656 Z M 738.820312 644.964844 L 710.570312 665.488281 L 668.15625 665.488281 L 696.40625 644.964844 Z M 928.984375 800.53125 L 850.75 800.53125 L 928.984375 743.703125 Z M 928.984375 800.53125 " fill-opacity="1" fill-rule="nonzero"/></g><g transform="matrix(1, 0, 0, 1, 311, 853)"><g clip-path="url(#571c66a58f)"><g fill="#242424" fill-opacity="1"><g transform="translate(2.553004, 109.113725)"><g><path d="M 36.078125 1.8125 C 29.492188 1.8125 23.082031 1.078125 16.84375 -0.390625 C 10.601562 -1.867188 5.476562 -3.859375 1.46875 -6.359375 L 10.09375 -25.875 C 13.875 -23.675781 18.109375 -21.914062 22.796875 -20.59375 C 27.492188 -19.269531 32 -18.609375 36.3125 -18.609375 C 40.007812 -18.609375 42.648438 -18.96875 44.234375 -19.6875 C 45.828125 -20.40625 46.625 -21.484375 46.625 -22.921875 C 46.625 -24.578125 45.582031 -25.820312 43.5 -26.65625 C 41.425781 -27.488281 38.003906 -28.398438 33.234375 -29.390625 C 27.109375 -30.671875 22.003906 -32.046875 17.921875 -33.515625 C 13.835938 -34.992188 10.28125 -37.414062 7.25 -40.78125 C 4.226562 -44.144531 2.71875 -48.703125 2.71875 -54.453125 C 2.71875 -59.453125 4.117188 -63.992188 6.921875 -68.078125 C 9.722656 -72.160156 13.898438 -75.375 19.453125 -77.71875 C 25.015625 -80.0625 31.765625 -81.234375 39.703125 -81.234375 C 45.148438 -81.234375 50.5 -80.644531 55.75 -79.46875 C 61.007812 -78.300781 65.644531 -76.582031 69.65625 -74.3125 L 61.609375 -54.90625 C 53.816406 -58.84375 46.441406 -60.8125 39.484375 -60.8125 C 32.597656 -60.8125 29.15625 -59.144531 29.15625 -55.8125 C 29.15625 -54.226562 30.175781 -53.035156 32.21875 -52.234375 C 34.257812 -51.441406 37.625 -50.59375 42.3125 -49.6875 C 48.363281 -48.550781 53.46875 -47.242188 57.625 -45.765625 C 61.789062 -44.296875 65.40625 -41.894531 68.46875 -38.5625 C 71.53125 -35.238281 73.0625 -30.703125 73.0625 -24.953125 C 73.0625 -19.960938 71.660156 -15.441406 68.859375 -11.390625 C 66.066406 -7.347656 61.890625 -4.132812 56.328125 -1.75 C 50.765625 0.625 44.015625 1.8125 36.078125 1.8125 Z M 36.078125 1.8125 "/></g></g></g><g fill="#242424" fill-opacity="1"><g transform="translate(77.081365, 109.113725)"><g><path d="M 48.109375 1.8125 C 39.554688 1.8125 31.875 0.0351562 25.0625 -3.515625 C 18.257812 -7.066406 12.929688 -12 9.078125 -18.3125 C 5.222656 -24.632812 3.296875 -31.765625 3.296875 -39.703125 C 3.296875 -47.648438 5.222656 -54.78125 9.078125 -61.09375 C 12.929688 -67.40625 18.257812 -72.335938 25.0625 -75.890625 C 31.875 -79.453125 39.554688 -81.234375 48.109375 -81.234375 C 56.648438 -81.234375 64.320312 -79.453125 71.125 -75.890625 C 77.9375 -72.335938 83.269531 -67.40625 87.125 -61.09375 C 90.988281 -54.78125 92.921875 -47.648438 92.921875 -39.703125 C 92.921875 -31.765625 90.988281 -24.632812 87.125 -18.3125 C 83.269531 -12 77.9375 -7.066406 71.125 -3.515625 C 64.320312 0.0351562 56.648438 1.8125 48.109375 1.8125 Z M 48.109375 -19.859375 C 51.429688 -19.859375 54.4375 -20.671875 57.125 -22.296875 C 59.8125 -23.921875 61.945312 -26.226562 63.53125 -29.21875 C 65.125 -32.207031 65.921875 -35.703125 65.921875 -39.703125 C 65.921875 -43.710938 65.125 -47.210938 63.53125 -50.203125 C 61.945312 -53.191406 59.8125 -55.5 57.125 -57.125 C 54.4375 -58.75 51.429688 -59.5625 48.109375 -59.5625 C 44.773438 -59.5625 41.765625 -58.75 39.078125 -57.125 C 36.398438 -55.5 34.265625 -53.191406 32.671875 -50.203125 C 31.085938 -47.210938 30.296875 -43.710938 30.296875 -39.703125 C 30.296875 -35.703125 31.085938 -32.207031 32.671875 -29.21875 C 34.265625 -26.226562 36.398438 -23.921875 39.078125 -22.296875 C 41.765625 -20.671875 44.773438 -19.859375 48.109375 -19.859375 Z M 48.109375 -19.859375 "/></g></g></g><g fill="#242424" fill-opacity="1"><g transform="translate(173.276273, 109.113725)"><g><path d="M 6.46875 -79.421875 L 33.234375 -79.421875 L 33.234375 -20.765625 L 69.09375 -20.765625 L 69.09375 0 L 6.46875 0 Z M 6.46875 -79.421875 "/></g></g></g><g fill="#242424" fill-opacity="1"><g transform="translate(243.267143, 109.113725)"><g><path d="M 60.578125 -13.84375 L 30.40625 -13.84375 L 25.078125 0 L -2.15625 0 L 32.5625 -79.421875 L 58.875 -79.421875 L 93.59375 0 L 65.921875 0 Z M 53.203125 -33.125 L 45.5 -53.09375 L 37.78125 -33.125 Z M 53.203125 -33.125 "/></g></g></g><g fill="#242424" fill-opacity="1"><g transform="translate(334.697691, 109.113725)"><g><path d="M 40.5 -19.96875 L 33.234375 -19.96875 L 33.234375 0 L 6.46875 0 L 6.46875 -79.421875 L 44.703125 -79.421875 C 52.035156 -79.421875 58.425781 -78.207031 63.875 -75.78125 C 69.320312 -73.363281 73.519531 -69.882812 76.46875 -65.34375 C 79.414062 -60.8125 80.890625 -55.519531 80.890625 -49.46875 C 80.890625 -43.789062 79.601562 -38.832031 77.03125 -34.59375 C 74.457031 -30.363281 70.753906 -27 65.921875 -24.5 L 82.59375 0 L 54 0 Z M 53.890625 -49.46875 C 53.890625 -52.414062 52.976562 -54.703125 51.15625 -56.328125 C 49.34375 -57.953125 46.625 -58.765625 43 -58.765625 L 33.234375 -58.765625 L 33.234375 -40.15625 L 43 -40.15625 C 46.625 -40.15625 49.34375 -40.96875 51.15625 -42.59375 C 52.976562 -44.226562 53.890625 -46.519531 53.890625 -49.46875 Z M 53.890625 -49.46875 "/></g></g></g><g fill="#242424" fill-opacity="1"><g transform="translate(419.208548, 109.113725)"><g><path d="M 60.578125 -13.84375 L 30.40625 -13.84375 L 25.078125 0 L -2.15625 0 L 32.5625 -79.421875 L 58.875 -79.421875 L 93.59375 0 L 65.921875 0 Z M 53.203125 -33.125 L 45.5 -53.09375 L 37.78125 -33.125 Z M 53.203125 -33.125 "/></g></g></g><g fill="#242424" fill-opacity="1"><g transform="translate(510.639096, 109.113725)"><g/></g></g><g fill="#242424" fill-opacity="1"><g transform="translate(544.670297, 109.113725)"><g><path d="M 36.078125 1.8125 C 29.492188 1.8125 23.082031 1.078125 16.84375 -0.390625 C 10.601562 -1.867188 5.476562 -3.859375 1.46875 -6.359375 L 10.09375 -25.875 C 13.875 -23.675781 18.109375 -21.914062 22.796875 -20.59375 C 27.492188 -19.269531 32 -18.609375 36.3125 -18.609375 C 40.007812 -18.609375 42.648438 -18.96875 44.234375 -19.6875 C 45.828125 -20.40625 46.625 -21.484375 46.625 -22.921875 C 46.625 -24.578125 45.582031 -25.820312 43.5 -26.65625 C 41.425781 -27.488281 38.003906 -28.398438 33.234375 -29.390625 C 27.109375 -30.671875 22.003906 -32.046875 17.921875 -33.515625 C 13.835938 -34.992188 10.28125 -37.414062 7.25 -40.78125 C 4.226562 -44.144531 2.71875 -48.703125 2.71875 -54.453125 C 2.71875 -59.453125 4.117188 -63.992188 6.921875 -68.078125 C 9.722656 -72.160156 13.898438 -75.375 19.453125 -77.71875 C 25.015625 -80.0625 31.765625 -81.234375 39.703125 -81.234375 C 45.148438 -81.234375 50.5 -80.644531 55.75 -79.46875 C 61.007812 -78.300781 65.644531 -76.582031 69.65625 -74.3125 L 61.609375 -54.90625 C 53.816406 -58.84375 46.441406 -60.8125 39.484375 -60.8125 C 32.597656 -60.8125 29.15625 -59.144531 29.15625 -55.8125 C 29.15625 -54.226562 30.175781 -53.035156 32.21875 -52.234375 C 34.257812 -51.441406 37.625 -50.59375 42.3125 -49.6875 C 48.363281 -48.550781 53.46875 -47.242188 57.625 -45.765625 C 61.789062 -44.296875 65.40625 -41.894531 68.46875 -38.5625 C 71.53125 -35.238281 73.0625 -30.703125 73.0625 -24.953125 C 73.0625 -19.960938 71.660156 -15.441406 68.859375 -11.390625 C 66.066406 -7.347656 61.890625 -4.132812 56.328125 -1.75 C 50.765625 0.625 44.015625 1.8125 36.078125 1.8125 Z M 36.078125 1.8125 "/></g></g></g><g fill="#242424" fill-opacity="1"><g transform="translate(619.198657, 109.113725)"><g><path d="M 53.65625 -28.8125 L 53.65625 0 L 26.890625 0 L 26.890625 -29.15625 L -3.0625 -79.421875 L 25.1875 -79.421875 L 41.40625 -51.96875 L 57.75 -79.421875 L 83.609375 -79.421875 Z M 53.65625 -28.8125 "/></g></g></g><g fill="#242424" fill-opacity="1"><g transform="translate(699.739195, 109.113725)"><g><path d="M 84.75 -79.421875 L 84.75 0 L 62.734375 0 L 32.5625 -36.078125 L 32.5625 0 L 6.46875 0 L 6.46875 -79.421875 L 28.484375 -79.421875 L 58.65625 -43.34375 L 58.65625 -79.421875 Z M 84.75 -79.421875 "/></g></g></g><g fill="#242424" fill-opacity="1"><g transform="translate(790.942832, 109.113725)"><g><path d="M 47.53125 1.8125 C 39.132812 1.8125 31.570312 0.0546875 24.84375 -3.453125 C 18.113281 -6.972656 12.835938 -11.890625 9.015625 -18.203125 C 5.203125 -24.523438 3.296875 -31.691406 3.296875 -39.703125 C 3.296875 -47.722656 5.203125 -54.890625 9.015625 -61.203125 C 12.835938 -67.523438 18.113281 -72.441406 24.84375 -75.953125 C 31.570312 -79.472656 39.132812 -81.234375 47.53125 -81.234375 C 55.25 -81.234375 62.132812 -79.867188 68.1875 -77.140625 C 74.238281 -74.421875 79.226562 -70.488281 83.15625 -65.34375 L 66.25 -50.265625 C 61.332031 -56.460938 55.546875 -59.5625 48.890625 -59.5625 C 43.296875 -59.5625 38.796875 -57.765625 35.390625 -54.171875 C 31.992188 -50.578125 30.296875 -45.753906 30.296875 -39.703125 C 30.296875 -33.648438 31.992188 -28.828125 35.390625 -25.234375 C 38.796875 -21.648438 43.296875 -19.859375 48.890625 -19.859375 C 55.546875 -19.859375 61.332031 -22.957031 66.25 -29.15625 L 83.15625 -14.0625 C 79.226562 -8.925781 74.238281 -4.992188 68.1875 -2.265625 C 62.132812 0.453125 55.25 1.8125 47.53125 1.8125 Z M 47.53125 1.8125 "/></g></g></g></g></g><g fill="#242424" fill-opacity="1"><g transform="translate(481.609792, 1031.822579)"><g><path d="M 27.015625 -16.21875 C 28.796875 -15.59375 30.1875 -14.617188 31.1875 -13.296875 C 32.195312 -11.984375 32.703125 -10.394531 32.703125 -8.53125 C 32.703125 -5.800781 31.601562 -3.695312 29.40625 -2.21875 C 27.21875 -0.738281 24.050781 0 19.90625 0 L 3.109375 0 L 3.109375 -31.109375 L 19.015625 -31.109375 C 22.984375 -31.109375 26.003906 -30.375 28.078125 -28.90625 C 30.148438 -27.4375 31.1875 -25.457031 31.1875 -22.96875 C 31.1875 -21.488281 30.820312 -20.160156 30.09375 -18.984375 C 29.375 -17.816406 28.347656 -16.894531 27.015625 -16.21875 Z M 11.828125 -24.75 L 11.828125 -18.75 L 17.859375 -18.75 C 20.828125 -18.75 22.3125 -19.757812 22.3125 -21.78125 C 22.3125 -23.757812 20.828125 -24.75 17.859375 -24.75 Z M 19.203125 -6.359375 C 22.273438 -6.359375 23.8125 -7.410156 23.8125 -9.515625 C 23.8125 -11.617188 22.273438 -12.671875 19.203125 -12.671875 L 11.828125 -12.671875 L 11.828125 -6.359375 Z M 19.203125 -6.359375 "/></g></g></g><g fill="#242424" fill-opacity="1"><g transform="translate(522.437913, 1031.822579)"><g><path d="M 28.078125 -6.796875 L 28.078125 0 L 3.109375 0 L 3.109375 -31.109375 L 27.5 -31.109375 L 27.5 -24.3125 L 11.828125 -24.3125 L 11.828125 -19.0625 L 25.640625 -19.0625 L 25.640625 -12.484375 L 11.828125 -12.484375 L 11.828125 -6.796875 Z M 28.078125 -6.796875 "/></g></g></g><g fill="#242424" fill-opacity="1"><g transform="translate(558.956739, 1031.822579)"><g><path d="M 19.78125 -11.15625 L 19.78125 0 L 10.96875 0 L 10.96875 -11.28125 L -0.890625 -31.109375 L 8.40625 -31.109375 L 15.78125 -18.75 L 23.15625 -31.109375 L 31.6875 -31.109375 Z M 19.78125 -11.15625 "/></g></g></g><g fill="#242424" fill-opacity="1"><g transform="translate(596.408499, 1031.822579)"><g><path d="M 18.796875 0.625 C 15.503906 0.625 12.546875 -0.0703125 9.921875 -1.46875 C 7.304688 -2.863281 5.25 -4.789062 3.75 -7.25 C 2.257812 -9.707031 1.515625 -12.472656 1.515625 -15.546875 C 1.515625 -18.628906 2.257812 -21.398438 3.75 -23.859375 C 5.25 -26.316406 7.304688 -28.242188 9.921875 -29.640625 C 12.546875 -31.035156 15.503906 -31.734375 18.796875 -31.734375 C 22.085938 -31.734375 25.039062 -31.035156 27.65625 -29.640625 C 30.28125 -28.242188 32.335938 -26.316406 33.828125 -23.859375 C 35.328125 -21.398438 36.078125 -18.628906 36.078125 -15.546875 C 36.078125 -12.472656 35.328125 -9.707031 33.828125 -7.25 C 32.335938 -4.789062 30.28125 -2.863281 27.65625 -1.46875 C 25.039062 -0.0703125 22.085938 0.625 18.796875 0.625 Z M 18.796875 -6.671875 C 20.367188 -6.671875 21.789062 -7.039062 23.0625 -7.78125 C 24.332031 -8.519531 25.335938 -9.5625 26.078125 -10.90625 C 26.828125 -12.257812 27.203125 -13.804688 27.203125 -15.546875 C 27.203125 -17.296875 26.828125 -18.84375 26.078125 -20.1875 C 25.335938 -21.539062 24.332031 -22.585938 23.0625 -23.328125 C 21.789062 -24.066406 20.367188 -24.4375 18.796875 -24.4375 C 17.222656 -24.4375 15.800781 -24.066406 14.53125 -23.328125 C 13.257812 -22.585938 12.25 -21.539062 11.5 -20.1875 C 10.757812 -18.84375 10.390625 -17.296875 10.390625 -15.546875 C 10.390625 -13.804688 10.757812 -12.257812 11.5 -10.90625 C 12.25 -9.5625 13.257812 -8.519531 14.53125 -7.78125 C 15.800781 -7.039062 17.222656 -6.671875 18.796875 -6.671875 Z M 18.796875 -6.671875 "/></g></g></g><g fill="#242424" fill-opacity="1"><g transform="translate(640.657408, 1031.822579)"><g><path d="M 32.703125 -31.109375 L 32.703125 0 L 25.46875 0 L 11.734375 -16.578125 L 11.734375 0 L 3.109375 0 L 3.109375 -31.109375 L 10.359375 -31.109375 L 24.078125 -14.53125 L 24.078125 -31.109375 Z M 32.703125 -31.109375 "/></g></g></g><g fill="#242424" fill-opacity="1"><g transform="translate(683.12929, 1031.822579)"><g><path d="M 3.109375 -31.109375 L 17.8125 -31.109375 C 21.226562 -31.109375 24.253906 -30.46875 26.890625 -29.1875 C 29.523438 -27.914062 31.566406 -26.109375 33.015625 -23.765625 C 34.460938 -21.429688 35.1875 -18.691406 35.1875 -15.546875 C 35.1875 -12.410156 34.460938 -9.671875 33.015625 -7.328125 C 31.566406 -4.992188 29.523438 -3.1875 26.890625 -1.90625 C 24.253906 -0.632812 21.226562 0 17.8125 0 L 3.109375 0 Z M 17.46875 -7.015625 C 20.132812 -7.015625 22.273438 -7.769531 23.890625 -9.28125 C 25.503906 -10.789062 26.3125 -12.878906 26.3125 -15.546875 C 26.3125 -18.210938 25.503906 -20.300781 23.890625 -21.8125 C 22.273438 -23.320312 20.132812 -24.078125 17.46875 -24.078125 L 11.90625 -24.078125 L 11.90625 -7.015625 Z M 17.46875 -7.015625 "/></g></g></g><g fill="#242424" fill-opacity="1"><g transform="translate(726.489668, 1031.822579)"><g/></g></g><g fill="#242424" fill-opacity="1"><g transform="translate(746.082272, 1031.822579)"><g><path d="M 9.734375 -24.125 L 0.171875 -24.125 L 0.171875 -31.109375 L 28.046875 -31.109375 L 28.046875 -24.125 L 18.53125 -24.125 L 18.53125 0 L 9.734375 0 Z M 9.734375 -24.125 "/></g></g></g><g fill="#242424" fill-opacity="1"><g transform="translate(780.957315, 1031.822579)"><g><path d="M 32.703125 -31.109375 L 32.703125 0 L 23.90625 0 L 23.90625 -12.125 L 11.90625 -12.125 L 11.90625 0 L 3.109375 0 L 3.109375 -31.109375 L 11.90625 -31.109375 L 11.90625 -19.421875 L 23.90625 -19.421875 L 23.90625 -31.109375 Z M 32.703125 -31.109375 "/></g></g></g><g fill="#242424" fill-opacity="1"><g transform="translate(823.429197, 1031.822579)"><g><path d="M 28.078125 -6.796875 L 28.078125 0 L 3.109375 0 L 3.109375 -31.109375 L 27.5 -31.109375 L 27.5 -24.3125 L 11.828125 -24.3125 L 11.828125 -19.0625 L 25.640625 -19.0625 L 25.640625 -12.484375 L 11.828125 -12.484375 L 11.828125 -6.796875 Z M 28.078125 -6.796875 "/></g></g></g><g fill="#242424" fill-opacity="1"><g transform="translate(859.948023, 1031.822579)"><g/></g></g><g fill="#242424" fill-opacity="1"><g transform="translate(879.540604, 1031.822579)"><g><path d="M 23.953125 -16.21875 L 31.734375 -16.21875 L 31.734375 -3.328125 C 29.953125 -2.054688 27.90625 -1.078125 25.59375 -0.390625 C 23.28125 0.285156 20.96875 0.625 18.65625 0.625 C 15.40625 0.625 12.472656 -0.0625 9.859375 -1.4375 C 7.253906 -2.820312 5.210938 -4.742188 3.734375 -7.203125 C 2.253906 -9.660156 1.515625 -12.441406 1.515625 -15.546875 C 1.515625 -18.660156 2.253906 -21.445312 3.734375 -23.90625 C 5.210938 -26.363281 7.269531 -28.28125 9.90625 -29.65625 C 12.539062 -31.039062 15.519531 -31.734375 18.84375 -31.734375 C 21.75 -31.734375 24.351562 -31.242188 26.65625 -30.265625 C 28.96875 -29.285156 30.894531 -27.878906 32.4375 -26.046875 L 26.84375 -20.96875 C 24.738281 -23.28125 22.21875 -24.4375 19.28125 -24.4375 C 16.613281 -24.4375 14.460938 -23.628906 12.828125 -22.015625 C 11.203125 -20.398438 10.390625 -18.242188 10.390625 -15.546875 C 10.390625 -13.828125 10.757812 -12.296875 11.5 -10.953125 C 12.25 -9.609375 13.289062 -8.554688 14.625 -7.796875 C 15.957031 -7.046875 17.484375 -6.671875 19.203125 -6.671875 C 20.890625 -6.671875 22.472656 -7.007812 23.953125 -7.6875 Z M 23.953125 -16.21875 "/></g></g></g><g fill="#242424" fill-opacity="1"><g transform="translate(920.413174, 1031.822579)"><g><path d="M 16.703125 -8.265625 L 11.90625 -8.265625 L 11.90625 0 L 3.109375 0 L 3.109375 -31.109375 L 17.328125 -31.109375 C 20.140625 -31.109375 22.582031 -30.640625 24.65625 -29.703125 C 26.726562 -28.773438 28.328125 -27.441406 29.453125 -25.703125 C 30.585938 -23.972656 31.15625 -21.9375 31.15625 -19.59375 C 31.15625 -17.34375 30.628906 -15.378906 29.578125 -13.703125 C 28.523438 -12.035156 27.019531 -10.726562 25.0625 -9.78125 L 31.765625 0 L 22.359375 0 Z M 22.265625 -19.59375 C 22.265625 -21.050781 21.804688 -22.175781 20.890625 -22.96875 C 19.972656 -23.769531 18.609375 -24.171875 16.796875 -24.171875 L 11.90625 -24.171875 L 11.90625 -15.0625 L 16.796875 -15.0625 C 18.609375 -15.0625 19.972656 -15.453125 20.890625 -16.234375 C 21.804688 -17.023438 22.265625 -18.144531 22.265625 -19.59375 Z M 22.265625 -19.59375 "/></g></g></g><g fill="#242424" fill-opacity="1"><g transform="translate(959.95292, 1031.822579)"><g><path d="M 3.109375 -31.109375 L 11.90625 -31.109375 L 11.90625 0 L 3.109375 0 Z M 3.109375 -31.109375 "/></g></g></g><g fill="#242424" fill-opacity="1"><g transform="translate(981.677971, 1031.822579)"><g><path d="M 3.109375 -31.109375 L 17.8125 -31.109375 C 21.226562 -31.109375 24.253906 -30.46875 26.890625 -29.1875 C 29.523438 -27.914062 31.566406 -26.109375 33.015625 -23.765625 C 34.460938 -21.429688 35.1875 -18.691406 35.1875 -15.546875 C 35.1875 -12.410156 34.460938 -9.671875 33.015625 -7.328125 C 31.566406 -4.992188 29.523438 -3.1875 26.890625 -1.90625 C 24.253906 -0.632812 21.226562 0 17.8125 0 L 3.109375 0 Z M 17.46875 -7.015625 C 20.132812 -7.015625 22.273438 -7.769531 23.890625 -9.28125 C 25.503906 -10.789062 26.3125 -12.878906 26.3125 -15.546875 C 26.3125 -18.210938 25.503906 -20.300781 23.890625 -21.8125 C 22.273438 -23.320312 20.132812 -24.078125 17.46875 -24.078125 L 11.90625 -24.078125 L 11.90625 -7.015625 Z M 17.46875 -7.015625 "/></g></g></g></svg>